<svg width="251" height="90" viewBox="0 0 251 90" fill="none" xmlns="http://www.w3.org/2000/svg">
<path fill-rule="evenodd" clip-rule="evenodd" d="M3.732 42.9965C0.471108 30.8265 -1.15931 24.7417 1.60836 19.9479C4.37604 15.1541 10.4609 13.5237 22.6309 10.2627L22.6311 10.2627L47.003 3.7323C59.173 0.471351 65.2579 -1.15912 70.0517 1.60857C74.8457 4.37626 76.476 10.4612 79.7369 22.6313L86.2676 47.0033L86.2678 47.0041C89.5285 59.1735 91.1588 65.2585 88.391 70.052C85.6235 74.8458 79.5385 76.4762 67.3683 79.7372L42.9965 86.2676L42.9952 86.2681C30.826 89.5288 24.7414 91.159 19.9477 88.3913C15.154 85.6238 13.5235 79.5388 10.2626 67.3694L10.2625 67.3686L3.73208 42.9967L3.732 42.9965Z" fill="#694BF5"/>
<path fill-rule="evenodd" clip-rule="evenodd" d="M32.8981 18.3382H24.2716V42.3769H29.7271V35.2163H32.8981C38.9675 35.2163 43.6048 34.057 43.6048 26.7601C43.6048 19.4975 38.9675 18.3382 32.8981 18.3382ZM33.2392 30.4427H29.7271V23.1119H33.2392C36.4784 23.1119 38.1493 23.4528 38.1493 26.7601C38.1493 30.1019 36.4784 30.4427 33.2392 30.4427ZM45.3252 42.3769H50.781V33.9208H60.1916V42.3769H65.6474V34.7049C65.6474 32.8295 64.6244 31.8065 62.7489 31.8065H59.2369V30.4427C62.1353 30.1019 65.3405 29.0107 65.3405 25.0554C65.3405 19.668 60.3622 18.3382 54.6339 18.3382H45.3252V42.3769ZM50.781 29.1469V23.1119H54.6339C57.8731 23.1119 59.8848 23.1119 59.8848 26.1465C59.8848 29.1469 57.8733 29.1469 54.6341 29.1469H54.6339H50.781ZM34.8737 71.5694C27.236 71.5694 22.5986 66.2162 22.5986 59.1921C22.5986 52.202 27.236 46.8488 34.8737 46.8488C42.4775 46.8488 47.1145 52.202 47.1145 59.1921C47.1145 66.2162 42.4775 71.5694 34.8737 71.5694ZM34.8737 51.6224C30.3387 51.6224 28.0542 54.5888 28.0542 59.1921C28.0542 63.8291 30.3387 66.7958 34.8737 66.7958C39.4088 66.7958 41.659 63.8291 41.659 59.1921C41.659 54.5888 39.4088 51.6224 34.8737 51.6224ZM49.1878 71.2283H54.6433V63.7269L65.5545 63.045V58.2031L54.6433 58.8853V51.9635H66.3387V47.1899H49.1878V71.2283Z" fill="#F5F5FF"/>
<path d="M122.5 17.92H115.12V16H132.1V17.92H124.72V37H122.5V17.92ZM139.838 21.1C141.898 21.1 143.478 21.62 144.578 22.66C145.678 23.68 146.228 25.2 146.228 27.22V37H144.188V34.54C143.708 35.36 142.998 36 142.058 36.46C141.138 36.92 140.038 37.15 138.758 37.15C136.998 37.15 135.598 36.73 134.558 35.89C133.518 35.05 132.998 33.94 132.998 32.56C132.998 31.22 133.478 30.14 134.438 29.32C135.418 28.5 136.968 28.09 139.088 28.09H144.098V27.13C144.098 25.77 143.718 24.74 142.958 24.04C142.198 23.32 141.088 22.96 139.628 22.96C138.628 22.96 137.668 23.13 136.748 23.47C135.828 23.79 135.038 24.24 134.378 24.82L133.418 23.23C134.218 22.55 135.178 22.03 136.298 21.67C137.418 21.29 138.598 21.1 139.838 21.1ZM139.088 35.47C140.288 35.47 141.318 35.2 142.178 34.66C143.038 34.1 143.678 33.3 144.098 32.26V29.68H139.148C136.448 29.68 135.098 30.62 135.098 32.5C135.098 33.42 135.448 34.15 136.148 34.69C136.848 35.21 137.828 35.47 139.088 35.47ZM156.243 37.15C154.963 37.15 153.733 36.97 152.553 36.61C151.393 36.23 150.483 35.76 149.823 35.2L150.783 33.52C151.443 34.04 152.273 34.47 153.273 34.81C154.273 35.13 155.313 35.29 156.393 35.29C157.833 35.29 158.893 35.07 159.573 34.63C160.273 34.17 160.623 33.53 160.623 32.71C160.623 32.13 160.433 31.68 160.053 31.36C159.673 31.02 159.193 30.77 158.613 30.61C158.033 30.43 157.263 30.26 156.303 30.1C155.023 29.86 153.993 29.62 153.213 29.38C152.433 29.12 151.763 28.69 151.203 28.09C150.663 27.49 150.393 26.66 150.393 25.6C150.393 24.28 150.943 23.2 152.043 22.36C153.143 21.52 154.673 21.1 156.633 21.1C157.653 21.1 158.673 21.24 159.693 21.52C160.713 21.78 161.553 22.13 162.213 22.57L161.283 24.28C159.983 23.38 158.433 22.93 156.633 22.93C155.273 22.93 154.243 23.17 153.543 23.65C152.863 24.13 152.523 24.76 152.523 25.54C152.523 26.14 152.713 26.62 153.093 26.98C153.493 27.34 153.983 27.61 154.563 27.79C155.143 27.95 155.943 28.12 156.963 28.3C158.223 28.54 159.233 28.78 159.993 29.02C160.753 29.26 161.403 29.67 161.943 30.25C162.483 30.83 162.753 31.63 162.753 32.65C162.753 34.03 162.173 35.13 161.013 35.95C159.873 36.75 158.283 37.15 156.243 37.15ZM172.541 29.08L168.821 32.5V37H166.691V14.74H168.821V29.83L178.241 21.22H180.881L174.131 27.67L181.511 37H178.901L172.541 29.08ZM140.23 53V74H138.1V57.2L129.85 71.33H128.8L120.55 57.29V74H118.42V53H120.25L129.37 68.57L138.4 53H140.23ZM152.142 58.1C154.202 58.1 155.782 58.62 156.882 59.66C157.982 60.68 158.532 62.2 158.532 64.22V74H156.492V71.54C156.012 72.36 155.302 73 154.362 73.46C153.442 73.92 152.342 74.15 151.062 74.15C149.302 74.15 147.902 73.73 146.862 72.89C145.822 72.05 145.302 70.94 145.302 69.56C145.302 68.22 145.782 67.14 146.742 66.32C147.722 65.5 149.272 65.09 151.392 65.09H156.402V64.13C156.402 62.77 156.022 61.74 155.262 61.04C154.502 60.32 153.392 59.96 151.932 59.96C150.932 59.96 149.972 60.13 149.052 60.47C148.132 60.79 147.342 61.24 146.682 61.82L145.722 60.23C146.522 59.55 147.482 59.03 148.602 58.67C149.722 58.29 150.902 58.1 152.142 58.1ZM151.392 72.47C152.592 72.47 153.622 72.2 154.482 71.66C155.342 71.1 155.982 70.3 156.402 69.26V66.68H151.452C148.752 66.68 147.402 67.62 147.402 69.5C147.402 70.42 147.752 71.15 148.452 71.69C149.152 72.21 150.132 72.47 151.392 72.47ZM172.358 58.1C174.338 58.1 175.908 58.68 177.068 59.84C178.248 60.98 178.838 62.65 178.838 64.85V74H176.708V65.06C176.708 63.42 176.298 62.17 175.478 61.31C174.658 60.45 173.488 60.02 171.968 60.02C170.268 60.02 168.918 60.53 167.918 61.55C166.938 62.55 166.448 63.94 166.448 65.72V74H164.318V58.22H166.358V61.13C166.938 60.17 167.738 59.43 168.758 58.91C169.798 58.37 170.998 58.1 172.358 58.1ZM190.14 58.1C192.2 58.1 193.78 58.62 194.88 59.66C195.98 60.68 196.53 62.2 196.53 64.22V74H194.49V71.54C194.01 72.36 193.3 73 192.36 73.46C191.44 73.92 190.34 74.15 189.06 74.15C187.3 74.15 185.9 73.73 184.86 72.89C183.82 72.05 183.3 70.94 183.3 69.56C183.3 68.22 183.78 67.14 184.74 66.32C185.72 65.5 187.27 65.09 189.39 65.09H194.4V64.13C194.4 62.77 194.02 61.74 193.26 61.04C192.5 60.32 191.39 59.96 189.93 59.96C188.93 59.96 187.97 60.13 187.05 60.47C186.13 60.79 185.34 61.24 184.68 61.82L183.72 60.23C184.52 59.55 185.48 59.03 186.6 58.67C187.72 58.29 188.9 58.1 190.14 58.1ZM189.39 72.47C190.59 72.47 191.62 72.2 192.48 71.66C193.34 71.1 193.98 70.3 194.4 69.26V66.68H189.45C186.75 66.68 185.4 67.62 185.4 69.5C185.4 70.42 185.75 71.15 186.45 71.69C187.15 72.21 188.13 72.47 189.39 72.47ZM216.984 58.22V72.08C216.984 74.76 216.324 76.74 215.004 78.02C213.704 79.32 211.734 79.97 209.094 79.97C207.634 79.97 206.244 79.75 204.924 79.31C203.624 78.89 202.564 78.3 201.744 77.54L202.824 75.92C203.584 76.6 204.504 77.13 205.584 77.51C206.684 77.89 207.834 78.08 209.034 78.08C211.034 78.08 212.504 77.61 213.444 76.67C214.384 75.75 214.854 74.31 214.854 72.35V70.34C214.194 71.34 213.324 72.1 212.244 72.62C211.184 73.14 210.004 73.4 208.704 73.4C207.224 73.4 205.874 73.08 204.654 72.44C203.454 71.78 202.504 70.87 201.804 69.71C201.124 68.53 200.784 67.2 200.784 65.72C200.784 64.24 201.124 62.92 201.804 61.76C202.504 60.6 203.454 59.7 204.654 59.06C205.854 58.42 207.204 58.1 208.704 58.1C210.044 58.1 211.254 58.37 212.334 58.91C213.414 59.45 214.284 60.23 214.944 61.25V58.22H216.984ZM208.914 71.51C210.054 71.51 211.084 71.27 212.004 70.79C212.924 70.29 213.634 69.6 214.134 68.72C214.654 67.84 214.914 66.84 214.914 65.72C214.914 64.6 214.654 63.61 214.134 62.75C213.634 61.87 212.924 61.19 212.004 60.71C211.104 60.21 210.074 59.96 208.914 59.96C207.774 59.96 206.744 60.2 205.824 60.68C204.924 61.16 204.214 61.84 203.694 62.72C203.194 63.6 202.944 64.6 202.944 65.72C202.944 66.84 203.194 67.84 203.694 68.72C204.214 69.6 204.924 70.29 205.824 70.79C206.744 71.27 207.774 71.51 208.914 71.51ZM236.681 66.77H223.481C223.601 68.41 224.231 69.74 225.371 70.76C226.511 71.76 227.951 72.26 229.691 72.26C230.671 72.26 231.571 72.09 232.391 71.75C233.211 71.39 233.921 70.87 234.521 70.19L235.721 71.57C235.021 72.41 234.141 73.05 233.081 73.49C232.041 73.93 230.891 74.15 229.631 74.15C228.011 74.15 226.571 73.81 225.311 73.13C224.071 72.43 223.101 71.47 222.401 70.25C221.701 69.03 221.351 67.65 221.351 66.11C221.351 64.57 221.681 63.19 222.341 61.97C223.021 60.75 223.941 59.8 225.101 59.12C226.281 58.44 227.601 58.1 229.061 58.1C230.521 58.1 231.831 58.44 232.991 59.12C234.151 59.8 235.061 60.75 235.721 61.97C236.381 63.17 236.711 64.55 236.711 66.11L236.681 66.77ZM229.061 59.93C227.541 59.93 226.261 60.42 225.221 61.4C224.201 62.36 223.621 63.62 223.481 65.18H234.671C234.531 63.62 233.941 62.36 232.901 61.4C231.881 60.42 230.601 59.93 229.061 59.93ZM243.086 61.31C243.586 60.25 244.326 59.45 245.306 58.91C246.306 58.37 247.536 58.1 248.996 58.1V60.17L248.486 60.14C246.826 60.14 245.526 60.65 244.586 61.67C243.646 62.69 243.176 64.12 243.176 65.96V74H241.046V58.22H243.086V61.31Z" fill="white"/>
</svg>
